<svg width="583" height="187" viewBox="0 0 583 187" fill="none" xmlns="http://www.w3.org/2000/svg">
<g filter="url(#filter0_d_5_35)">
<path d="M56.5658 68.3188L26.9465 93.0016L56.5658 117.684C57.1714 118.169 57.6741 118.77 58.0448 119.451C58.4154 120.133 58.6464 120.881 58.7242 121.653C58.8021 122.425 58.7252 123.204 58.4982 123.946C58.2711 124.688 57.8984 125.377 57.4019 125.972C56.9054 126.568 56.295 127.059 55.6064 127.417C54.9179 127.774 54.165 127.99 53.3919 128.053C52.6187 128.115 51.8408 128.023 51.1037 127.782C50.3666 127.54 49.6851 127.154 49.099 126.646L14.0983 97.4788C13.4415 96.9313 12.9132 96.2462 12.5506 95.4718C12.188 94.6975 12 93.853 12 92.9979C12 92.1429 12.188 91.2984 12.5506 90.5241C12.9132 89.7497 13.4415 89.0646 14.0983 88.5171L49.099 59.3499C50.2883 58.3597 51.8223 57.8826 53.3635 58.0234C54.9046 58.1643 56.3267 58.9116 57.3169 60.1009C58.307 61.2903 58.7842 62.8243 58.6433 64.3654C58.5025 65.9066 57.7552 67.3286 56.5658 68.3188ZM184.902 88.5171L149.901 59.3499C149.312 58.8596 148.632 58.4901 147.901 58.2625C147.169 58.0349 146.4 57.9537 145.637 58.0234C144.873 58.0932 144.132 58.3125 143.453 58.669C142.775 59.0255 142.173 59.512 141.683 60.1009C140.693 61.2903 140.216 62.8243 140.357 64.3654C140.498 65.9066 141.245 67.3286 142.434 68.3188L172.054 93.0016L142.434 117.684C141.829 118.169 141.326 118.77 140.955 119.451C140.585 120.133 140.354 120.881 140.276 121.653C140.198 122.425 140.275 123.204 140.502 123.946C140.729 124.688 141.102 125.377 141.598 125.972C142.095 126.568 142.705 127.059 143.394 127.417C144.082 127.774 144.835 127.99 145.608 128.053C146.381 128.115 147.159 128.023 147.896 127.782C148.633 127.54 149.315 127.154 149.901 126.646L184.902 97.4788C185.558 96.9313 186.087 96.2462 186.449 95.4718C186.812 94.6975 187 93.853 187 92.9979C187 92.1429 186.812 91.2984 186.449 90.5241C186.087 89.7497 185.558 89.0646 184.902 88.5171ZM124.824 23.3502C124.104 23.0888 123.34 22.9717 122.575 23.0058C121.809 23.0398 121.058 23.2243 120.364 23.5486C119.67 23.8729 119.047 24.3308 118.53 24.896C118.012 25.4613 117.612 26.1229 117.35 26.843L70.6828 155.179C70.4202 155.899 70.3023 156.665 70.3358 157.431C70.3693 158.197 70.5535 158.949 70.8779 159.644C71.2023 160.339 71.6605 160.963 72.2264 161.48C72.7922 161.998 73.4546 162.399 74.1755 162.66C74.8146 162.887 75.4879 163.003 76.1662 163.003C77.3642 163.003 78.5331 162.634 79.5142 161.947C80.4952 161.259 81.2408 160.286 81.6496 159.16L128.317 30.8243C128.579 30.1042 128.696 29.3397 128.662 28.5743C128.628 27.809 128.443 27.0579 128.119 26.3638C127.795 25.6698 127.337 25.0465 126.771 24.5294C126.206 24.0123 125.545 23.6116 124.824 23.3502Z" fill="white"/>
</g>
<g filter="url(#filter1_d_5_35)">
<path d="M324.667 71.6C322.511 71.6 320.478 71.2 318.567 70.4C316.678 69.5778 315.011 68.4556 313.567 67.0333C312.144 65.6111 311.022 63.9556 310.2 62.0667C309.4 60.1778 309 58.1556 309 56C309 53.8444 309.4 51.8222 310.2 49.9333C311.022 48.0444 312.144 46.3889 313.567 44.9667C315.011 43.5444 316.678 42.4333 318.567 41.6333C320.478 40.8111 322.511 40.4 324.667 40.4C326.8 40.4 328.8 40.8 330.667 41.6C332.533 42.3778 334.178 43.4556 335.6 44.8333L334.5 49.4333C333.478 47.7889 332.1 46.4778 330.367 45.5C328.656 44.5 326.756 44 324.667 44C322.467 44 320.478 44.5444 318.7 45.6333C316.944 46.7 315.544 48.1444 314.5 49.9667C313.456 51.7667 312.933 53.7778 312.933 56C312.933 58.2 313.456 60.2111 314.5 62.0333C315.544 63.8556 316.944 65.3111 318.7 66.4C320.478 67.4667 322.467 68 324.667 68C326.778 68 328.689 67.5 330.4 66.5C332.111 65.5 333.478 64.1889 334.5 62.5667L335.6 67.1667C334.178 68.5222 332.533 69.6 330.667 70.4C328.8 71.2 326.8 71.6 324.667 71.6ZM348.767 71.2667C346.944 71.2667 345.278 70.8111 343.767 69.9C342.256 68.9667 341.044 67.7222 340.133 66.1667C339.244 64.6111 338.8 62.8889 338.8 61C338.8 59.1111 339.244 57.3889 340.133 55.8333C341.044 54.2778 342.256 53.0444 343.767 52.1333C345.278 51.2 346.944 50.7333 348.767 50.7333C350.144 50.7333 351.433 50.9889 352.633 51.5C353.856 52.0111 354.911 52.7222 355.8 53.6333V51H359.133V71H355.8V68.3667C354.911 69.2556 353.856 69.9667 352.633 70.5C351.433 71.0111 350.144 71.2667 348.767 71.2667ZM349.233 68C350.5 68 351.644 67.6889 352.667 67.0667C353.711 66.4222 354.533 65.5778 355.133 64.5333C355.756 63.4667 356.067 62.2889 356.067 61C356.067 59.7111 355.756 58.5444 355.133 57.5C354.533 56.4333 353.711 55.5889 352.667 54.9667C351.644 54.3222 350.5 54 349.233 54C347.967 54 346.811 54.3222 345.767 54.9667C344.744 55.5889 343.922 56.4333 343.3 57.5C342.7 58.5444 342.4 59.7111 342.4 61C342.4 62.2889 342.7 63.4667 343.3 64.5333C343.922 65.5778 344.744 66.4222 345.767 67.0667C346.811 67.6889 347.967 68 349.233 68ZM365.513 71V51H369.112V71H365.513ZM367.313 47.4C366.646 47.4 366.079 47.1667 365.613 46.7C365.146 46.2333 364.913 45.6667 364.913 45C364.913 44.3111 365.146 43.7444 365.613 43.3C366.079 42.8333 366.646 42.6 367.313 42.6C368.001 42.6 368.568 42.8333 369.013 43.3C369.479 43.7444 369.713 44.3111 369.713 45C369.713 45.6667 369.479 46.2333 369.013 46.7C368.568 47.1667 368.001 47.4 367.313 47.4ZM384.63 71.4C382.697 71.4 380.93 70.9333 379.33 70C377.73 69.0667 376.452 67.8111 375.497 66.2333C374.564 64.6556 374.097 62.9111 374.097 61C374.097 59.0667 374.564 57.3222 375.497 55.7667C376.452 54.1889 377.73 52.9333 379.33 52C380.93 51.0667 382.697 50.6 384.63 50.6C386.586 50.6 388.352 51.0667 389.93 52C391.53 52.9333 392.797 54.1889 393.73 55.7667C394.686 57.3222 395.164 59.0667 395.164 61C395.164 62.9111 394.686 64.6556 393.73 66.2333C392.797 67.8111 391.53 69.0667 389.93 70C388.352 70.9333 386.586 71.4 384.63 71.4ZM384.63 68C385.919 68 387.086 67.6889 388.13 67.0667C389.175 66.4222 390.008 65.5778 390.63 64.5333C391.252 63.4667 391.564 62.2889 391.564 61C391.564 59.7111 391.252 58.5444 390.63 57.5C390.008 56.4333 389.175 55.5889 388.13 54.9667C387.086 54.3222 385.919 54 384.63 54C383.341 54 382.175 54.3222 381.13 54.9667C380.086 55.5889 379.252 56.4333 378.63 57.5C378.008 58.5444 377.697 59.7111 377.697 61C377.697 62.2889 378.008 63.4667 378.63 64.5333C379.252 65.5778 380.086 66.4222 381.13 67.0667C382.175 67.6889 383.341 68 384.63 68Z" fill="white"/>
</g>
<g filter="url(#filter2_d_5_35)">
<path d="M221.2 136V53.3333L258.356 104.533L294.8 53.3333V136H284.667V99.0222C284.667 96.5926 284.696 93.9556 284.756 91.1111C284.815 88.2074 285.022 84.9185 285.378 81.2444C283.541 84.5037 281.733 87.3778 279.956 89.8667C278.237 92.2963 276.667 94.5481 275.244 96.6222L258 121.067L240.222 96.6222C238.741 94.5481 237.141 92.2963 235.422 89.8667C233.763 87.3778 231.985 84.5037 230.089 81.2444C230.444 84.9185 230.652 88.2074 230.711 91.1111C230.77 93.9556 230.8 96.5926 230.8 99.0222V136H221.2ZM338.889 137.067C333.733 137.067 329.022 135.822 324.756 133.333C320.489 130.844 317.081 127.496 314.533 123.289C312.044 119.081 310.8 114.43 310.8 109.333C310.8 104.178 312.044 99.5259 314.533 95.3778C317.081 91.1704 320.489 87.8222 324.756 85.3333C329.022 82.8444 333.733 81.6 338.889 81.6C344.104 81.6 348.815 82.8444 353.022 85.3333C357.289 87.8222 360.667 91.1704 363.156 95.3778C365.704 99.5259 366.978 104.178 366.978 109.333C366.978 114.43 365.704 119.081 363.156 123.289C360.667 127.496 357.289 130.844 353.022 133.333C348.815 135.822 344.104 137.067 338.889 137.067ZM338.889 128C342.326 128 345.437 127.17 348.222 125.511C351.007 123.793 353.23 121.541 354.889 118.756C356.548 115.911 357.378 112.77 357.378 109.333C357.378 105.896 356.548 102.785 354.889 100C353.23 97.1556 351.007 94.9037 348.222 93.2444C345.437 91.5259 342.326 90.6667 338.889 90.6667C335.452 90.6667 332.341 91.5259 329.556 93.2444C326.77 94.9037 324.548 97.1556 322.889 100C321.23 102.785 320.4 105.896 320.4 109.333C320.4 112.77 321.23 115.911 322.889 118.756C324.548 121.541 326.77 123.793 329.556 125.511C332.341 127.17 335.452 128 338.889 128ZM380.283 136V82.6667H389.172V92.4444C391.069 89.3037 393.587 86.8148 396.728 84.9778C399.869 83.0815 403.602 82.1333 407.928 82.1333L410.328 91.7333C409.202 91.3778 407.898 91.2 406.417 91.2C401.439 91.2 397.439 92.8 394.417 96C391.394 99.1407 389.883 103.644 389.883 109.511V136H380.283ZM443.956 137.067C438.385 137.067 433.378 135.822 428.933 133.333C424.548 130.844 421.081 127.467 418.533 123.2C416.044 118.874 414.8 114.074 414.8 108.8C414.8 103.763 416.015 99.2 418.444 95.1111C420.874 90.963 424.133 87.6741 428.222 85.2444C432.37 82.8148 436.933 81.6 441.911 81.6C446.83 81.6 451.333 82.7852 455.422 85.1556C459.511 87.4667 462.77 90.6074 465.2 94.5778C467.63 98.5481 468.844 103.052 468.844 108.089V112H434C432.459 112 430.889 111.941 429.289 111.822C427.689 111.704 426.119 111.526 424.578 111.289C425.23 116.03 427.363 120 430.978 123.2C434.652 126.4 439.007 128 444.044 128C447.422 128 450.563 127.23 453.467 125.689C456.37 124.148 458.711 122.104 460.489 119.556L463.156 130.489C460.607 132.563 457.674 134.193 454.356 135.378C451.096 136.504 447.63 137.067 443.956 137.067ZM424.311 104.8C427.511 104.267 430.741 104 434 104H451.689C452.993 104 454.267 104.059 455.511 104.178C456.815 104.237 458.119 104.326 459.422 104.444C458.593 100.296 456.519 96.8889 453.2 94.2222C449.881 91.4963 446.119 90.1333 441.911 90.1333C437.585 90.1333 433.793 91.5852 430.533 94.4889C427.274 97.3333 425.2 100.77 424.311 104.8ZM481.658 136V50.6667H491.258V136H481.658ZM508.283 136V50.6667H517.883V136H508.283ZM534.908 136V82.6667H544.508V136H534.908ZM539.708 73.0667C537.931 73.0667 536.419 72.4444 535.175 71.2C533.931 69.9556 533.308 68.4444 533.308 66.6667C533.308 64.8296 533.931 63.3185 535.175 62.1333C536.419 60.8889 537.931 60.2667 539.708 60.2667C541.545 60.2667 543.056 60.8889 544.242 62.1333C545.486 63.3185 546.108 64.8296 546.108 66.6667C546.108 68.4444 545.486 69.9556 544.242 71.2C543.056 72.4444 541.545 73.0667 539.708 73.0667Z" fill="white"/>
</g>
<defs>
<filter id="filter0_d_5_35" x="4" y="15" width="191" height="156.003" filterUnits="userSpaceOnUse" color-interpolation-filters="sRGB">
<feFlood flood-opacity="0" result="BackgroundImageFix"/>
<feColorMatrix in="SourceAlpha" type="matrix" values="0 0 0 0 0 0 0 0 0 0 0 0 0 0 0 0 0 0 127 0" result="hardAlpha"/>
<feOffset/>
<feGaussianBlur stdDeviation="4"/>
<feComposite in2="hardAlpha" operator="out"/>
<feColorMatrix type="matrix" values="0 0 0 0 1 0 0 0 0 1 0 0 0 0 1 0 0 0 0.25 0"/>
<feBlend mode="normal" in2="BackgroundImageFix" result="effect1_dropShadow_5_35"/>
<feBlend mode="normal" in="SourceGraphic" in2="effect1_dropShadow_5_35" result="shape"/>
</filter>
<filter id="filter1_d_5_35" x="301" y="32.4" width="102.164" height="47.2" filterUnits="userSpaceOnUse" color-interpolation-filters="sRGB">
<feFlood flood-opacity="0" result="BackgroundImageFix"/>
<feColorMatrix in="SourceAlpha" type="matrix" values="0 0 0 0 0 0 0 0 0 0 0 0 0 0 0 0 0 0 127 0" result="hardAlpha"/>
<feOffset/>
<feGaussianBlur stdDeviation="4"/>
<feComposite in2="hardAlpha" operator="out"/>
<feColorMatrix type="matrix" values="0 0 0 0 1 0 0 0 0 1 0 0 0 0 1 0 0 0 0.25 0"/>
<feBlend mode="normal" in2="BackgroundImageFix" result="effect1_dropShadow_5_35"/>
<feBlend mode="normal" in="SourceGraphic" in2="effect1_dropShadow_5_35" result="shape"/>
</filter>
<filter id="filter2_d_5_35" x="213.2" y="42.6667" width="340.908" height="102.4" filterUnits="userSpaceOnUse" color-interpolation-filters="sRGB">
<feFlood flood-opacity="0" result="BackgroundImageFix"/>
<feColorMatrix in="SourceAlpha" type="matrix" values="0 0 0 0 0 0 0 0 0 0 0 0 0 0 0 0 0 0 127 0" result="hardAlpha"/>
<feOffset/>
<feGaussianBlur stdDeviation="4"/>
<feComposite in2="hardAlpha" operator="out"/>
<feColorMatrix type="matrix" values="0 0 0 0 1 0 0 0 0 1 0 0 0 0 1 0 0 0 0.25 0"/>
<feBlend mode="normal" in2="BackgroundImageFix" result="effect1_dropShadow_5_35"/>
<feBlend mode="normal" in="SourceGraphic" in2="effect1_dropShadow_5_35" result="shape"/>
</filter>
</defs>
</svg>
