<svg width="583" height="187" viewBox="0 0 583 187" fill="none" xmlns="http://www.w3.org/2000/svg">
<g filter="url(#filter0_d_5_35)">
<path d="M56.5658 68.3188L26.9465 93.0016L56.5658 117.684C57.1714 118.169 57.6741 118.77 58.0448 119.451C58.4154 120.133 58.6464 120.881 58.7242 121.653C58.8021 122.425 58.7252 123.204 58.4982 123.946C58.2711 124.688 57.8984 125.377 57.4019 125.972C56.9054 126.568 56.295 127.059 55.6064 127.417C54.9179 127.774 54.165 127.99 53.3919 128.053C52.6187 128.115 51.8408 128.023 51.1037 127.782C50.3666 127.54 49.6851 127.154 49.099 126.646L14.0983 97.4788C13.4415 96.9313 12.9132 96.2462 12.5506 95.4718C12.188 94.6975 12 93.853 12 92.9979C12 92.1429 12.188 91.2984 12.5506 90.5241C12.9132 89.7497 13.4415 89.0646 14.0983 88.5171L49.099 59.3499C50.2883 58.3597 51.8223 57.8826 53.3635 58.0234C54.9046 58.1643 56.3267 58.9116 57.3169 60.1009C58.307 61.2903 58.7842 62.8243 58.6433 64.3654C58.5025 65.9066 57.7552 67.3286 56.5658 68.3188ZM184.902 88.5171L149.901 59.3499C149.312 58.8596 148.632 58.4901 147.901 58.2625C147.169 58.0349 146.4 57.9537 145.637 58.0234C144.873 58.0932 144.132 58.3125 143.453 58.669C142.775 59.0255 142.173 59.512 141.683 60.1009C140.693 61.2903 140.216 62.8243 140.357 64.3654C140.498 65.9066 141.245 67.3286 142.434 68.3188L172.054 93.0016L142.434 117.684C141.829 118.169 141.326 118.77 140.955 119.451C140.585 120.133 140.354 120.881 140.276 121.653C140.198 122.425 140.275 123.204 140.502 123.946C140.729 124.688 141.102 125.377 141.598 125.972C142.095 126.568 142.705 127.059 143.394 127.417C144.082 127.774 144.835 127.99 145.608 128.053C146.381 128.115 147.159 128.023 147.896 127.782C148.633 127.54 149.315 127.154 149.901 126.646L184.902 97.4788C185.558 96.9313 186.087 96.2462 186.449 95.4718C186.812 94.6975 187 93.853 187 92.9979C187 92.1429 186.812 91.2984 186.449 90.5241C186.087 89.7497 185.558 89.0646 184.902 88.5171ZM124.824 23.3502C124.104 23.0888 123.34 22.9717 122.575 23.0058C121.809 23.0398 121.058 23.2243 120.364 23.5486C119.67 23.8729 119.047 24.3308 118.53 24.896C118.012 25.4613 117.612 26.1229 117.35 26.843L70.6828 155.179C70.4202 155.899 70.3023 156.665 70.3358 157.431C70.3693 158.197 70.5535 158.949 70.8779 159.644C71.2023 160.339 71.6605 160.963 72.2264 161.48C72.7922 161.998 73.4546 162.399 74.1755 162.66C74.8146 162.887 75.4879 163.003 76.1662 163.003C77.3642 163.003 78.5331 162.634 79.5142 161.947C80.4952 161.259 81.2408 160.286 81.6496 159.16L128.317 30.8243C128.579 30.1042 128.696 29.3397 128.662 28.5743C128.628 27.809 128.443 27.0579 128.119 26.3638C127.795 25.6698 127.337 25.0465 126.771 24.5294C126.206 24.0123 125.545 23.6116 124.824 23.3502Z" fill="white"/>
</g>
<g filter="url(#filter1_d_5_35)">
<path d="M324.667 71.6C322.511 71.6 320.478 71.2 318.567 70.4C316.678 69.5778 315.011 68.4556 313.567 67.0333C312.144 65.6111 311.022 63.9556 310.2 62.0667C309.4 60.1778 309 58.1556 309 56C309 53.8444 309.4 51.8222 310.2 49.9333C311.022 48.0444 312.144 46.3889 313.567 44.9667C315.011 43.5444 316.678 42.4333 318.567 41.6333C320.478 40.8111 322.511 40.4 324.667 40.4C326.8 40.4 328.8 40.8 330.667 41.6C332.533 42.3778 334.178 43.4556 335.6 44.8333L334.5 49.4333C333.478 47.7889 332.1 46.4778 330.367 45.5C328.656 44.5 326.756 44 324.667 44C322.467 44 320.478 44.5444 318.7 45.6333C316.944 46.7 315.544 48.1444 314.5 49.9667C313.456 51.7667 312.933 53.7778 312.933 56C312.933 58.2 313.456 60.2111 314.5 62.0333C315.544 63.8556 316.944 65.3111 318.7 66.4C320.478 67.4667 322.467 68 324.667 68C326.778 68 328.689 67.5 330.4 66.5C332.111 65.5 333.478 64.1889 334.5 62.5667L335.6 67.1667C334.178 68.5222 332.533 69.6 330.667 70.4C328.8 71.2 326.8 71.6 324.667 71.6ZM348.767 71.2667C346.944 71.2667 345.278 70.8111 343.767 69.9C342.256 68.9667 341.044 67.7222 340.133 66.1667C339.244 64.6111 338.8 62.8889 338.8 61C338.8 59.1111 339.244 57.3889 340.133 55.8333C341.044 54.2778 342.256 53.0444 343.767 52.1333C345.278 51.2 346.944 50.7333 348.767 50.7333C350.144 50.7333 351.433 50.9889 352.633 51.5C353.856 52.0111 354.911 52.7222 355.8 53.6333V51H359.133V71H355.8V68.3667C354.911 69.2556 353.856 69.9667 352.633 70.5C351.433 71.0111 350.144 71.2667 348.767 71.2667ZM349.233 68C350.5 68 351.644 67.6889 352.667 67.0667C353.711 66.4222 354.533 65.5778 355.133 64.5333C355.756 63.4667 356.067 62.2889 356.067 61C356.067 59.7111 355.756 58.5444 355.133 57.5C354.533 56.4333 353.711 55.5889 352.667 54.9667C351.644 54.3222 350.5 54 349.233 54C347.967 54 346.811 54.3222 345.767 54.9667C344.744 55.5889 343.922 56.4333 343.3 57.5C342.7 58.5444 342.4 59.7111 342.4 61C342.4 62.2889 342.7 63.4667 343.3 64.5333C343.922 65.5778 344.744 66.4222 345.767 67.0667C346.811 67.6889 347.967 68 349.233 68ZM365.513 71V51H369.112V71H365.513ZM367.313 47.4C366.646 47.4 366.079 47.1667 365.613 46.7C365.146 46.2333 364.913 45.6667 364.913 45C364.913 44.3111 365.146 43.7444 365.613 43.3C366.079 42.8333 366.646 42.6 367.313 42.6C368.001 42.6 368.568 42.8333 369.013 43.3C369.479 43.7444 369.713 44.3111 369.713 45C369.713 45.6667 369.479 46.2333 369.013 46.7C368.568 47.1667 368.001 47.4 367.313 47.4ZM384.63 71.4C382.697 71.4 380.93 70.9333 379.33 70C377.73 69.0667 376.452 67.8111 375.497 66.2333C374.564 64.6556 374.097 62.9111 374.097 61C374.097 59.0667 374.564 57.3222 375.497 55.7667C376.452 54.1889 377.73 52.9333 379.33 52C380.93 51.0667 382.697 50.6 384.63 50.6C386.586 50.6 388.352 51.0667 389.93 52C391.53 52.9333 392.797 54.1889 393.73 55.7667C394.686 57.3222 395.164 59.0667 395.164 61C395.164 62.9111 394.686 64.6556 393.73 66.2333C392.797 67.8111 391.53 69.0667 389.93 70C388.352 70.9333 386.586 71.4 384.63 71.4ZM384.63 68C385.919 68 387.086 67.6889 388.13 67.0667C389.175 66.4222 390.008 65.5778 390.63 64.5333C391.252 63.4667 391.564 62.2889 391.564 61C391.564 59.7111 391.252 58.5444 390.63 57.5C390.008 56.4333 389.175 55.5889 388.13 54.9667C387.086 54.3222 385.919 54 384.63 54C383.341 54 382.175 54.3222 381.13 54.9667C380.086 55.5889 379.252 56.4333 378.63 57.5C378.008 58.5444 377.697 59.7111 377.697 61C377.697 62.2889 378.008 63.4667 378.63 64.5333C379.252 65.5778 380.086 66.4222 381.13 67.0667C382.175 67.6889 383.341 68 384.63 68Z" fill="white"/>
</g>
<g filter="url(#filter2_d_5_35)">
<path d="M221.2 136V53.3333L258.356 104.533L294.8 53.3333V136H284.667V99.0222C284.667 96.5926 284.696 93.9556 284.756 91.1111C284.815 88.2074 285.022 84.9185 285.378 81.2444C283.541 84.5037 281.733 87.3778 279.956 89.8667C278.237 92.2963 276.667 94.5481 275.244 96.6222L258 121.067L240.222 96.6222C238.741 94.5481 237.141 92.2963 235.422 89.8667C233.763 87.3778 231.985 84.5037 230.089 81.2444C230.444 84.9185 230.652 88.2074 230.711 91.1111C230.77 93.9556 230.8 96.5926 230.8 99.0222V136H221.2ZM338.889 137.067C333.733 137.067 329.022 135.822 324.756 133.333C320.489 130.844 317.081 127.496 314.533 123.289C312.044 119.081 310.8 114.43 310.8 109.333C310.8 104.178 312.044 99.5259 314.533 95.3778C317.081 91.1704 320.489 87.8222 324.756 85.3333C329.022 82.8444 333.733 81.6 338.889 81.6C344.104 81.6 348.815 82.8444 353.022 85.3333C357.289 87.8222 360.667 91.1704 363.156 95.3778C365.704 99.5259 366.978 104.178 366.978 109.333C366.978 114.43 365.704 119.081 363.156 123.289C360.667 127.496 357.289 130.844 353.022 133.333C348.815 135.822 344.104 137.067 338.889 137.067ZM338.889 128C342.326 128 345.437 127.17 348.222 125.511C351.007 123.793 353.23 121.541 354.889 118.756C356.548 115.911 357.378 112.77 357.378 109.333C357.378 105.896 356.548 102.785 354.889 100C353.23 97.1556 351.007 94.9037 348.222 93.2444C345.437 91.5259 342.326 90.6667 338.889 90.6667C335.452 90.6667 332.341 91.5259 329.556 93.2444C326.77 94.9037 324.548 97.1556 322.889 100C321.23 102.785 320.4 105.896 320.4 109.333C320.4 112.77 321.23 115.911 322.889 118.756C324.548 121.541 326.77 123.793 329.556 125.511C332.341 127.17 335.452 128 338.889 128ZM380.283 136V82.6667H389.172V92.4444C391.069 89.3037 393.587 86.8148 396.728 84.9778C399.869 83.0815 403.602 82.1333 407.928 82.1333L410.328 91.7333C409.202 91.3778 407.898 91.2 406.417 91.2C401.439 91.2 397.439 92.8 394.417 96C391.394 99.1407 389.883 103.644 389.883 109.511V136H380.283ZM443.956 137.067C438.385 137.067 433.378 135.822 428.933 133.333C424.548 130.844 421.081 127.467 418.533 123.2C416.044 118.874 414.8 114.074 414.8 108.8C414.8 103.763 416.015 99.2 418.444 95.1111C420.874 90.963 424.133 87.6741 428.222 85.2444C432.37 82.8148 436.933 81.6 441.911 81.6C446.83 81.6 451.333 82.7852 455.422 85.1556C459.511 87.4667 462.77 90.6074 465.2 94.5778C467.63 98.5481 468.844 103.052 468.844 108.089V112H434C432.459 112 430.889 111.941 429.289 111.822C427.689 111.704 426.119 111.526 424.578 111.289C425.23 116.03 427.363 120 430.978 123.2C434.652 126.4 439.007 128 444.044 128C447.422 128 450.563 127.23 453.467 125.689C456.37 124.148 458.711 122.104 460.489 119.556L463.156 130.489C460.607 132.563 457.674 134.193 454.356 135.378C451.096 136.504 447.63 137.067 443.956 137.067ZM424.311 104.8C427.511 104.267 430.741 104 434 104H451.689C452.993 104 454.267 104.059 455.511 104.178C456.815 104.237 458.119 104.326 459.422 104.444C458.593 100.296 456.519 96.8889 453.2 94.2222C449.881 91.4963 446.119 90.1333 441.911 90.1333C437.585 90.1333 433.793 91.5852 430.533 94.4889C427.274 97.3333 425.2 100.77 424.311 104.8ZM481.658 136V50.6667H491.258V136H481.658ZM508.283 136V50.6667H517.883V136H508.283ZM534.908 136V82.6667H544.508V136H534.908ZM539.708 73.0667C537.931 73.0667 536.419 72.4444 535.175 71.2C533.931 69.9556 533.308 68.4444 533.308 66.6667C533.308 64.8296 533.931 63.3185 535.175 62.1333C536.419 60.8889 537.931 60.2667 539.708 60.2667C541.545 60.2667 543.056 60.8889 544.242 62.1333C545.486 63.3185 546.108 64.8296 546.108 66.6667C546.108 68.4444 545.486 69.9556 544.242 71.2C543.056 72.4444 541.545 73.0667 539.708 73.0667Z" fill="white"/>
</g>
<g filter="url(#filter3_d_5_35)">
<path d="M219.1 160V145H224.017C225.372 145 226.55 145.222 227.55 145.667C228.561 146.111 229.394 146.7 230.05 147.433C230.706 148.167 231.194 148.978 231.517 149.867C231.839 150.744 232 151.622 232 152.5C232 153.378 231.839 154.261 231.517 155.15C231.194 156.028 230.706 156.833 230.05 157.567C229.394 158.3 228.561 158.889 227.55 159.333C226.55 159.778 225.372 160 224.017 160H219.1ZM221 158.3H223.817C224.972 158.3 225.944 158.122 226.733 157.767C227.522 157.4 228.161 156.928 228.65 156.35C229.139 155.761 229.489 155.128 229.7 154.45C229.922 153.772 230.033 153.122 230.033 152.5C230.033 151.878 229.922 151.228 229.7 150.55C229.489 149.872 229.139 149.244 228.65 148.667C228.161 148.078 227.522 147.606 226.733 147.25C225.944 146.883 224.972 146.7 223.817 146.7H221V158.3ZM243.934 160.2C242.89 160.2 241.951 159.967 241.118 159.5C240.296 159.033 239.646 158.4 239.168 157.6C238.701 156.789 238.468 155.889 238.468 154.9C238.468 153.956 238.696 153.1 239.151 152.333C239.607 151.556 240.218 150.939 240.984 150.483C241.762 150.028 242.618 149.8 243.551 149.8C244.473 149.8 245.318 150.022 246.084 150.467C246.851 150.9 247.462 151.489 247.918 152.233C248.373 152.978 248.601 153.822 248.601 154.767V155.5H242.068C241.779 155.5 241.484 155.489 241.184 155.467C240.884 155.444 240.59 155.411 240.301 155.367C240.423 156.256 240.823 157 241.501 157.6C242.19 158.2 243.007 158.5 243.951 158.5C244.584 158.5 245.173 158.356 245.718 158.067C246.262 157.778 246.701 157.394 247.034 156.917L247.534 158.967C247.057 159.356 246.507 159.661 245.884 159.883C245.273 160.094 244.623 160.2 243.934 160.2ZM240.251 154.15C240.851 154.05 241.457 154 242.068 154H245.384C245.629 154 245.868 154.011 246.101 154.033C246.346 154.044 246.59 154.061 246.834 154.083C246.679 153.306 246.29 152.667 245.668 152.167C245.046 151.656 244.34 151.4 243.551 151.4C242.74 151.4 242.029 151.672 241.418 152.217C240.807 152.75 240.418 153.394 240.251 154.15ZM258.147 160.2C257.636 160.2 257.086 160.106 256.497 159.917C255.919 159.717 255.419 159.389 254.997 158.933L255.497 156.967C255.808 157.489 256.208 157.906 256.697 158.217C257.186 158.517 257.708 158.667 258.264 158.667C258.797 158.667 259.197 158.539 259.464 158.283C259.73 158.017 259.864 157.694 259.864 157.317C259.864 156.883 259.719 156.567 259.43 156.367C259.153 156.167 258.903 156.028 258.68 155.95L257.33 155.433C257.086 155.333 256.792 155.189 256.447 155C256.103 154.8 255.803 154.517 255.547 154.15C255.292 153.783 255.164 153.306 255.164 152.717C255.164 152.183 255.292 151.694 255.547 151.25C255.803 150.806 256.164 150.456 256.63 150.2C257.097 149.933 257.647 149.8 258.28 149.8C258.78 149.8 259.303 149.889 259.847 150.067C260.392 150.244 260.853 150.544 261.23 150.967L260.73 152.933C260.464 152.444 260.103 152.056 259.647 151.767C259.192 151.478 258.719 151.333 258.23 151.333C257.775 151.333 257.414 151.461 257.147 151.717C256.892 151.972 256.764 152.267 256.764 152.6C256.764 152.867 256.853 153.106 257.03 153.317C257.208 153.528 257.475 153.7 257.83 153.833L259.18 154.35C259.425 154.439 259.725 154.583 260.08 154.783C260.447 154.983 260.769 155.272 261.047 155.65C261.325 156.028 261.464 156.539 261.464 157.183C261.464 158.083 261.147 158.811 260.514 159.367C259.892 159.922 259.103 160.2 258.147 160.2ZM273.398 160.2C272.354 160.2 271.415 159.967 270.582 159.5C269.759 159.033 269.109 158.4 268.632 157.6C268.165 156.789 267.932 155.889 267.932 154.9C267.932 153.956 268.159 153.1 268.615 152.333C269.07 151.556 269.682 150.939 270.448 150.483C271.226 150.028 272.082 149.8 273.015 149.8C273.937 149.8 274.782 150.022 275.548 150.467C276.315 150.9 276.926 151.489 277.382 152.233C277.837 152.978 278.065 153.822 278.065 154.767V155.5H271.532C271.243 155.5 270.948 155.489 270.648 155.467C270.348 155.444 270.054 155.411 269.765 155.367C269.887 156.256 270.287 157 270.965 157.6C271.654 158.2 272.47 158.5 273.415 158.5C274.048 158.5 274.637 158.356 275.182 158.067C275.726 157.778 276.165 157.394 276.498 156.917L276.998 158.967C276.52 159.356 275.97 159.661 275.348 159.883C274.737 160.094 274.087 160.2 273.398 160.2ZM269.715 154.15C270.315 154.05 270.92 154 271.532 154H274.848C275.093 154 275.332 154.011 275.565 154.033C275.809 154.044 276.054 154.061 276.298 154.083C276.143 153.306 275.754 152.667 275.132 152.167C274.509 151.656 273.804 151.4 273.015 151.4C272.204 151.4 271.493 151.672 270.882 152.217C270.27 152.75 269.882 153.394 269.715 154.15ZM285.027 160V150H286.694V151.617C287.061 151.028 287.533 150.578 288.111 150.267C288.7 149.956 289.333 149.8 290.011 149.8C290.722 149.8 291.377 149.978 291.977 150.333C292.589 150.678 293.083 151.183 293.461 151.85C293.839 152.506 294.027 153.306 294.027 154.25V160H292.227V154.5C292.227 153.711 291.989 153.017 291.511 152.417C291.044 151.806 290.383 151.5 289.527 151.5C288.827 151.5 288.2 151.756 287.644 152.267C287.1 152.767 286.827 153.494 286.827 154.45V160H285.027ZM304.745 160.5L299.695 150H301.745L303.779 154.333C303.968 154.722 304.145 155.106 304.312 155.483C304.479 155.861 304.64 156.322 304.795 156.867C304.962 156.322 305.129 155.861 305.295 155.483C305.473 155.094 305.651 154.711 305.829 154.333L307.879 150H309.795L304.745 160.5ZM320.23 160.2C319.263 160.2 318.38 159.967 317.58 159.5C316.78 159.033 316.141 158.406 315.663 157.617C315.196 156.828 314.963 155.956 314.963 155C314.963 154.033 315.196 153.161 315.663 152.383C316.141 151.594 316.78 150.967 317.58 150.5C318.38 150.033 319.263 149.8 320.23 149.8C321.208 149.8 322.091 150.033 322.88 150.5C323.68 150.967 324.313 151.594 324.78 152.383C325.258 153.161 325.496 154.033 325.496 155C325.496 155.956 325.258 156.828 324.78 157.617C324.313 158.406 323.68 159.033 322.88 159.5C322.091 159.967 321.208 160.2 320.23 160.2ZM320.23 158.5C320.874 158.5 321.458 158.344 321.98 158.033C322.502 157.711 322.919 157.289 323.23 156.767C323.541 156.233 323.696 155.644 323.696 155C323.696 154.356 323.541 153.772 323.23 153.25C322.919 152.717 322.502 152.294 321.98 151.983C321.458 151.661 320.874 151.5 320.23 151.5C319.585 151.5 319.002 151.661 318.48 151.983C317.958 152.294 317.541 152.717 317.23 153.25C316.919 153.772 316.763 154.356 316.763 155C316.763 155.644 316.919 156.233 317.23 156.767C317.541 157.289 317.958 157.711 318.48 158.033C319.002 158.344 319.585 158.5 320.23 158.5ZM332.551 160V144H334.351V160H332.551ZM345.753 160.5L340.703 150H342.753L344.787 154.333C344.976 154.722 345.153 155.106 345.32 155.483C345.487 155.861 345.648 156.322 345.803 156.867C345.97 156.322 346.137 155.861 346.303 155.483C346.481 155.094 346.659 154.711 346.837 154.333L348.887 150H350.803L345.753 160.5ZM361.438 160.2C360.393 160.2 359.455 159.967 358.621 159.5C357.799 159.033 357.149 158.4 356.671 157.6C356.205 156.789 355.971 155.889 355.971 154.9C355.971 153.956 356.199 153.1 356.655 152.333C357.11 151.556 357.721 150.939 358.488 150.483C359.266 150.028 360.121 149.8 361.055 149.8C361.977 149.8 362.821 150.022 363.588 150.467C364.355 150.9 364.966 151.489 365.421 152.233C365.877 152.978 366.105 153.822 366.105 154.767V155.5H359.571C359.282 155.5 358.988 155.489 358.688 155.467C358.388 155.444 358.093 155.411 357.805 155.367C357.927 156.256 358.327 157 359.005 157.6C359.693 158.2 360.51 158.5 361.455 158.5C362.088 158.5 362.677 158.356 363.221 158.067C363.766 157.778 364.205 157.394 364.538 156.917L365.038 158.967C364.56 159.356 364.01 159.661 363.388 159.883C362.777 160.094 362.127 160.2 361.438 160.2ZM357.755 154.15C358.355 154.05 358.96 154 359.571 154H362.888C363.132 154 363.371 154.011 363.605 154.033C363.849 154.044 364.093 154.061 364.338 154.083C364.182 153.306 363.793 152.667 363.171 152.167C362.549 151.656 361.843 151.4 361.055 151.4C360.243 151.4 359.532 151.672 358.921 152.217C358.31 152.75 357.921 153.394 357.755 154.15ZM377.351 160.133C376.439 160.133 375.606 159.906 374.851 159.45C374.095 158.983 373.489 158.361 373.034 157.583C372.589 156.806 372.367 155.944 372.367 155C372.367 154.056 372.589 153.194 373.034 152.417C373.489 151.639 374.095 151.022 374.851 150.567C375.606 150.1 376.439 149.867 377.351 149.867C378.006 149.867 378.623 149.983 379.201 150.217C379.778 150.45 380.289 150.772 380.734 151.183V144H382.534V160H380.867V158.683C380.423 159.128 379.895 159.483 379.284 159.75C378.684 160.006 378.039 160.133 377.351 160.133ZM377.584 158.5C378.217 158.5 378.789 158.344 379.301 158.033C379.823 157.711 380.234 157.289 380.534 156.767C380.845 156.233 381.001 155.644 381.001 155C381.001 154.356 380.845 153.772 380.534 153.25C380.234 152.717 379.823 152.294 379.301 151.983C378.789 151.661 378.217 151.5 377.584 151.5C376.951 151.5 376.373 151.661 375.851 151.983C375.339 152.294 374.928 152.717 374.617 153.25C374.317 153.772 374.167 154.356 374.167 155C374.167 155.644 374.317 156.233 374.617 156.767C374.928 157.289 375.339 157.711 375.851 158.033C376.373 158.344 376.951 158.5 377.584 158.5ZM394.85 160.2C393.883 160.2 393 159.967 392.2 159.5C391.4 159.033 390.761 158.406 390.283 157.617C389.817 156.828 389.583 155.956 389.583 155C389.583 154.033 389.817 153.161 390.283 152.383C390.761 151.594 391.4 150.967 392.2 150.5C393 150.033 393.883 149.8 394.85 149.8C395.828 149.8 396.711 150.033 397.5 150.5C398.3 150.967 398.933 151.594 399.4 152.383C399.878 153.161 400.117 154.033 400.117 155C400.117 155.956 399.878 156.828 399.4 157.617C398.933 158.406 398.3 159.033 397.5 159.5C396.711 159.967 395.828 160.2 394.85 160.2ZM394.85 158.5C395.495 158.5 396.078 158.344 396.6 158.033C397.122 157.711 397.539 157.289 397.85 156.767C398.161 156.233 398.317 155.644 398.317 155C398.317 154.356 398.161 153.772 397.85 153.25C397.539 152.717 397.122 152.294 396.6 151.983C396.078 151.661 395.495 151.5 394.85 151.5C394.206 151.5 393.622 151.661 393.1 151.983C392.578 152.294 392.161 152.717 391.85 153.25C391.539 153.772 391.383 154.356 391.383 155C391.383 155.644 391.539 156.233 391.85 156.767C392.161 157.289 392.578 157.711 393.1 158.033C393.622 158.344 394.206 158.5 394.85 158.5ZM407.172 160V150H408.838V151.833C409.194 151.244 409.666 150.778 410.255 150.433C410.844 150.078 411.544 149.9 412.355 149.9L412.805 151.7C412.594 151.633 412.349 151.6 412.072 151.6C411.138 151.6 410.388 151.9 409.822 152.5C409.255 153.089 408.972 153.933 408.972 155.033V160H407.172ZM429.284 160V145H436.684V146.7H431.184V149.9H436.184V151.6H431.184V160H429.284ZM443.023 160V150H444.69V151.833C445.046 151.244 445.518 150.778 446.107 150.433C446.696 150.078 447.396 149.9 448.207 149.9L448.657 151.7C448.446 151.633 448.201 151.6 447.923 151.6C446.99 151.6 446.24 151.9 445.673 152.5C445.107 153.089 444.823 153.933 444.823 155.033V160H443.023ZM459.322 160.2C458.355 160.2 457.472 159.967 456.672 159.5C455.872 159.033 455.233 158.406 454.755 157.617C454.289 156.828 454.055 155.956 454.055 155C454.055 154.033 454.289 153.161 454.755 152.383C455.233 151.594 455.872 150.967 456.672 150.5C457.472 150.033 458.355 149.8 459.322 149.8C460.3 149.8 461.183 150.033 461.972 150.5C462.772 150.967 463.405 151.594 463.872 152.383C464.35 153.161 464.589 154.033 464.589 155C464.589 155.956 464.35 156.828 463.872 157.617C463.405 158.406 462.772 159.033 461.972 159.5C461.183 159.967 460.3 160.2 459.322 160.2ZM459.322 158.5C459.966 158.5 460.55 158.344 461.072 158.033C461.594 157.711 462.011 157.289 462.322 156.767C462.633 156.233 462.789 155.644 462.789 155C462.789 154.356 462.633 153.772 462.322 153.25C462.011 152.717 461.594 152.294 461.072 151.983C460.55 151.661 459.966 151.5 459.322 151.5C458.678 151.5 458.094 151.661 457.572 151.983C457.05 152.294 456.633 152.717 456.322 153.25C456.011 153.772 455.855 154.356 455.855 155C455.855 155.644 456.011 156.233 456.322 156.767C456.633 157.289 457.05 157.711 457.572 158.033C458.094 158.344 458.678 158.5 459.322 158.5ZM471.643 160V150H473.31V151.617C473.677 151.028 474.149 150.578 474.727 150.267C475.316 149.956 475.949 149.8 476.627 149.8C477.338 149.8 477.993 149.978 478.593 150.333C479.205 150.678 479.699 151.183 480.077 151.85C480.455 152.506 480.643 153.306 480.643 154.25V160H478.843V154.5C478.843 153.711 478.605 153.017 478.127 152.417C477.66 151.806 476.999 151.5 476.143 151.5C475.443 151.5 474.816 151.756 474.26 152.267C473.716 152.767 473.443 153.494 473.443 154.45V160H471.643ZM489.042 160V151.5H486.775V150H489.092V146.667H490.792V150H493.275V151.5H490.842V160H489.042ZM498.343 155.8V154.2H503.343V155.8H498.343ZM515.098 160.2C514.053 160.2 513.115 159.967 512.281 159.5C511.459 159.033 510.809 158.4 510.331 157.6C509.865 156.789 509.631 155.889 509.631 154.9C509.631 153.956 509.859 153.1 510.315 152.333C510.77 151.556 511.381 150.939 512.148 150.483C512.926 150.028 513.781 149.8 514.715 149.8C515.637 149.8 516.481 150.022 517.248 150.467C518.015 150.9 518.626 151.489 519.081 152.233C519.537 152.978 519.765 153.822 519.765 154.767V155.5H513.231C512.942 155.5 512.648 155.489 512.348 155.467C512.048 155.444 511.753 155.411 511.465 155.367C511.587 156.256 511.987 157 512.665 157.6C513.353 158.2 514.17 158.5 515.115 158.5C515.748 158.5 516.337 158.356 516.881 158.067C517.426 157.778 517.865 157.394 518.198 156.917L518.698 158.967C518.22 159.356 517.67 159.661 517.048 159.883C516.437 160.094 515.787 160.2 515.098 160.2ZM511.415 154.15C512.015 154.05 512.62 154 513.231 154H516.548C516.792 154 517.031 154.011 517.265 154.033C517.509 154.044 517.753 154.061 517.998 154.083C517.842 153.306 517.453 152.667 516.831 152.167C516.209 151.656 515.503 151.4 514.715 151.4C513.903 151.4 513.192 151.672 512.581 152.217C511.97 152.75 511.581 153.394 511.415 154.15ZM526.727 160V150H528.394V151.617C528.761 151.028 529.233 150.578 529.811 150.267C530.399 149.956 531.033 149.8 531.711 149.8C532.422 149.8 533.077 149.978 533.677 150.333C534.288 150.678 534.783 151.183 535.161 151.85C535.538 152.506 535.727 153.306 535.727 154.25V160H533.927V154.5C533.927 153.711 533.688 153.017 533.211 152.417C532.744 151.806 532.083 151.5 531.227 151.5C530.527 151.5 529.899 151.756 529.344 152.267C528.799 152.767 528.527 153.494 528.527 154.45V160H526.727ZM547.571 160.133C546.659 160.133 545.826 159.906 545.071 159.45C544.315 158.983 543.709 158.361 543.254 157.583C542.809 156.806 542.587 155.944 542.587 155C542.587 154.056 542.809 153.194 543.254 152.417C543.709 151.639 544.315 151.022 545.071 150.567C545.826 150.1 546.659 149.867 547.571 149.867C548.226 149.867 548.843 149.983 549.421 150.217C549.998 150.45 550.509 150.772 550.954 151.183V144H552.754V160H551.087V158.683C550.643 159.128 550.115 159.483 549.504 159.75C548.904 160.006 548.259 160.133 547.571 160.133ZM547.804 158.5C548.437 158.5 549.009 158.344 549.521 158.033C550.043 157.711 550.454 157.289 550.754 156.767C551.065 156.233 551.221 155.644 551.221 155C551.221 154.356 551.065 153.772 550.754 153.25C550.454 152.717 550.043 152.294 549.521 151.983C549.009 151.661 548.437 151.5 547.804 151.5C547.171 151.5 546.593 151.661 546.071 151.983C545.559 152.294 545.148 152.717 544.837 153.25C544.537 153.772 544.387 154.356 544.387 155C544.387 155.644 544.537 156.233 544.837 156.767C545.148 157.289 545.559 157.711 546.071 158.033C546.593 158.344 547.171 158.5 547.804 158.5Z" fill="white"/>
</g>
<defs>
<filter id="filter0_d_5_35" x="4" y="15" width="191" height="156.003" filterUnits="userSpaceOnUse" color-interpolation-filters="sRGB">
<feFlood flood-opacity="0" result="BackgroundImageFix"/>
<feColorMatrix in="SourceAlpha" type="matrix" values="0 0 0 0 0 0 0 0 0 0 0 0 0 0 0 0 0 0 127 0" result="hardAlpha"/>
<feOffset/>
<feGaussianBlur stdDeviation="4"/>
<feComposite in2="hardAlpha" operator="out"/>
<feColorMatrix type="matrix" values="0 0 0 0 1 0 0 0 0 1 0 0 0 0 1 0 0 0 0.25 0"/>
<feBlend mode="normal" in2="BackgroundImageFix" result="effect1_dropShadow_5_35"/>
<feBlend mode="normal" in="SourceGraphic" in2="effect1_dropShadow_5_35" result="shape"/>
</filter>
<filter id="filter1_d_5_35" x="301" y="32.4" width="102.164" height="47.2" filterUnits="userSpaceOnUse" color-interpolation-filters="sRGB">
<feFlood flood-opacity="0" result="BackgroundImageFix"/>
<feColorMatrix in="SourceAlpha" type="matrix" values="0 0 0 0 0 0 0 0 0 0 0 0 0 0 0 0 0 0 127 0" result="hardAlpha"/>
<feOffset/>
<feGaussianBlur stdDeviation="4"/>
<feComposite in2="hardAlpha" operator="out"/>
<feColorMatrix type="matrix" values="0 0 0 0 1 0 0 0 0 1 0 0 0 0 1 0 0 0 0.25 0"/>
<feBlend mode="normal" in2="BackgroundImageFix" result="effect1_dropShadow_5_35"/>
<feBlend mode="normal" in="SourceGraphic" in2="effect1_dropShadow_5_35" result="shape"/>
</filter>
<filter id="filter2_d_5_35" x="213.2" y="42.6667" width="340.908" height="102.4" filterUnits="userSpaceOnUse" color-interpolation-filters="sRGB">
<feFlood flood-opacity="0" result="BackgroundImageFix"/>
<feColorMatrix in="SourceAlpha" type="matrix" values="0 0 0 0 0 0 0 0 0 0 0 0 0 0 0 0 0 0 127 0" result="hardAlpha"/>
<feOffset/>
<feGaussianBlur stdDeviation="4"/>
<feComposite in2="hardAlpha" operator="out"/>
<feColorMatrix type="matrix" values="0 0 0 0 1 0 0 0 0 1 0 0 0 0 1 0 0 0 0.25 0"/>
<feBlend mode="normal" in2="BackgroundImageFix" result="effect1_dropShadow_5_35"/>
<feBlend mode="normal" in="SourceGraphic" in2="effect1_dropShadow_5_35" result="shape"/>
</filter>
<filter id="filter3_d_5_35" x="211.1" y="136" width="349.654" height="32.5" filterUnits="userSpaceOnUse" color-interpolation-filters="sRGB">
<feFlood flood-opacity="0" result="BackgroundImageFix"/>
<feColorMatrix in="SourceAlpha" type="matrix" values="0 0 0 0 0 0 0 0 0 0 0 0 0 0 0 0 0 0 127 0" result="hardAlpha"/>
<feOffset/>
<feGaussianBlur stdDeviation="4"/>
<feComposite in2="hardAlpha" operator="out"/>
<feColorMatrix type="matrix" values="0 0 0 0 1 0 0 0 0 1 0 0 0 0 1 0 0 0 0.25 0"/>
<feBlend mode="normal" in2="BackgroundImageFix" result="effect1_dropShadow_5_35"/>
<feBlend mode="normal" in="SourceGraphic" in2="effect1_dropShadow_5_35" result="shape"/>
</filter>
</defs>
</svg>
